<svg xmlns="http://www.w3.org/2000/svg" xmlns:xlink="http://www.w3.org/1999/xlink" width="500" zoomAndPan="magnify" viewBox="0 0 375 374.999991" height="500" preserveAspectRatio="xMidYMid meet" version="1.0"><defs><g/><clipPath id="dc0fca6ebb"><path d="M 227.367188 90 L 259 90 L 259 122.109375 L 227.367188 122.109375 Z M 227.367188 90 " clip-rule="nonzero"/></clipPath><clipPath id="f37eab4dfb"><path d="M 233 88.359375 L 259.617188 88.359375 L 259.617188 116 L 233 116 Z M 233 88.359375 " clip-rule="nonzero"/></clipPath><clipPath id="94fd8134f7"><path d="M 152 164 L 215.851562 164 L 215.851562 192 L 152 192 Z M 152 164 " clip-rule="nonzero"/></clipPath><clipPath id="57d1c6f0e1"><path d="M 104 115 L 190 115 L 190 201.128906 L 104 201.128906 Z M 104 115 " clip-rule="nonzero"/></clipPath><clipPath id="f456a72494"><path d="M 116 105.128906 L 123 105.128906 L 123 112 L 116 112 Z M 116 105.128906 " clip-rule="nonzero"/></clipPath><clipPath id="0c2de67381"><path d="M 201 105.128906 L 218 105.128906 L 218 117 L 201 117 Z M 201 105.128906 " clip-rule="nonzero"/></clipPath><clipPath id="9fde2c9994"><path d="M 131.429688 143 L 160 143 L 160 162 L 131.429688 162 Z M 131.429688 143 " clip-rule="nonzero"/></clipPath><clipPath id="80dc2148ed"><path d="M 155 196 L 199 196 L 199 216.128906 L 155 216.128906 Z M 155 196 " clip-rule="nonzero"/></clipPath><clipPath id="64aa48eb2a"><path d="M 198 179 L 243.929688 179 L 243.929688 201 L 198 201 Z M 198 179 " clip-rule="nonzero"/></clipPath></defs><g clip-path="url(#dc0fca6ebb)"><path fill="#456188" d="M 243.117188 90.246094 C 234.433594 90.246094 227.367188 97.390625 227.367188 106.171875 C 227.367188 114.949219 234.433594 122.09375 243.117188 122.09375 C 251.800781 122.09375 258.867188 114.949219 258.867188 106.171875 C 258.867188 102.375 257.597656 98.980469 255.441406 96.199219 L 253.957031 97.976562 C 255.839844 100.320312 256.574219 102.917969 256.574219 106.171875 C 256.574219 113.691406 250.558594 119.773438 243.117188 119.773438 C 235.675781 119.773438 229.660156 113.691406 229.660156 106.171875 C 229.660156 98.648438 235.675781 92.5625 243.117188 92.5625 C 245.472656 92.5625 247.238281 92.90625 249.164062 93.980469 L 250.570312 92.109375 C 248.316406 90.851562 245.867188 90.246094 243.117188 90.246094 Z M 243.117188 90.246094 " fill-opacity="1" fill-rule="evenodd"/></g><g clip-path="url(#f37eab4dfb)"><path fill="#456188" d="M 237.285156 104.074219 C 237.921875 104.074219 238.402344 104.601562 238.726562 105.65625 C 239.378906 107.632812 239.84375 108.621094 240.121094 108.621094 C 240.332031 108.621094 240.550781 108.457031 240.78125 108.125 C 245.355469 100.714844 249.589844 94.722656 253.484375 90.144531 C 254.492188 88.960938 256.097656 88.367188 258.296875 88.367188 C 258.816406 88.367188 259.167969 88.417969 259.347656 88.515625 C 259.527344 88.613281 259.617188 88.738281 259.617188 88.886719 C 259.617188 89.117188 259.347656 89.570312 258.808594 90.242188 C 252.523438 97.882812 246.691406 105.953125 241.316406 114.449219 C 240.941406 115.042969 240.179688 115.339844 239.019531 115.339844 C 237.847656 115.339844 237.15625 115.289062 236.945312 115.191406 C 236.390625 114.941406 235.738281 113.683594 234.992188 111.410156 C 234.144531 108.890625 233.71875 107.3125 233.71875 106.667969 C 233.71875 105.976562 234.289062 105.3125 235.429688 104.667969 C 236.128906 104.273438 236.75 104.074219 237.285156 104.074219 " fill-opacity="1" fill-rule="nonzero"/></g><g clip-path="url(#94fd8134f7)"><path fill="#456188" d="M 211.460938 174.414062 C 207.652344 173.441406 198.75 176.0625 197.769531 172.925781 C 195.214844 164.78125 187.667969 162.324219 183.71875 166.609375 C 182.164062 168.292969 181.394531 171.496094 179.035156 172.007812 C 175.40625 172.789062 171.816406 169.082031 168.046875 171.019531 C 165.464844 172.347656 167.175781 176.035156 164.863281 177.449219 C 161.953125 179.230469 153.355469 176.191406 152.914062 182.269531 C 152.558594 187.136719 161.238281 188.234375 165.1875 187.695312 C 166.863281 187.464844 168.914062 186.167969 170.566406 186.414062 C 173.476562 186.855469 174.632812 190.375 178.070312 190.375 C 182.011719 190.375 183.996094 185.917969 188.269531 186.851562 C 193.4375 187.984375 195.238281 192.632812 201.796875 190.820312 C 204.347656 190.117188 205.324219 187.292969 207.457031 185.96875 C 209.96875 184.410156 215.023438 183.714844 215.464844 180.539062 C 215.859375 177.679688 214.441406 175.175781 211.460938 174.414062 Z M 211.460938 174.414062 " fill-opacity="1" fill-rule="evenodd"/></g><g clip-path="url(#57d1c6f0e1)"><path fill="#22404b" d="M 139.503906 115.1875 C 130.992188 121.949219 125.535156 132.382812 125.535156 144.074219 C 125.535156 164.441406 142.097656 180.976562 162.5 180.976562 C 173.015625 180.976562 182.511719 176.582031 189.246094 169.539062 C 184.105469 187.734375 167.339844 201.089844 147.476562 201.089844 C 123.527344 201.089844 104.085938 181.679688 104.085938 157.773438 C 104.085938 136.585938 119.359375 118.929688 139.503906 115.1875 Z M 139.503906 115.1875 " fill-opacity="1" fill-rule="evenodd"/></g><path fill="#122936" d="M 154.257812 117.425781 C 154.3125 117.332031 154.414062 117.277344 154.519531 117.277344 C 154.628906 117.277344 154.730469 117.332031 154.785156 117.425781 L 156.753906 120.636719 L 160.417969 121.511719 C 160.523438 121.535156 160.609375 121.613281 160.640625 121.714844 C 160.675781 121.820312 160.652344 121.929688 160.582031 122.011719 L 158.132812 124.875 L 158.429688 128.625 C 158.4375 128.734375 158.390625 128.835938 158.304688 128.898438 C 158.214844 128.964844 158.101562 128.976562 158.003906 128.9375 L 154.519531 127.492188 L 151.039062 128.9375 C 150.9375 128.976562 150.824219 128.964844 150.738281 128.898438 C 150.648438 128.835938 150.601562 128.734375 150.609375 128.625 L 150.910156 124.875 L 148.457031 122.011719 C 148.386719 121.929688 148.367188 121.820312 148.398438 121.714844 C 148.433594 121.613281 148.515625 121.535156 148.621094 121.511719 L 152.289062 120.636719 Z M 154.257812 117.425781 " fill-opacity="1" fill-rule="evenodd"/><path fill="#122936" d="M 170.144531 142.953125 C 170.175781 142.902344 170.230469 142.871094 170.289062 142.871094 C 170.347656 142.871094 170.398438 142.902344 170.429688 142.953125 L 171.492188 144.6875 L 173.472656 145.160156 C 173.527344 145.171875 173.574219 145.214844 173.59375 145.269531 C 173.609375 145.324219 173.597656 145.386719 173.5625 145.429688 L 172.238281 146.972656 L 172.398438 149 C 172.402344 149.058594 172.378906 149.113281 172.332031 149.148438 C 172.28125 149.183594 172.222656 149.1875 172.167969 149.167969 L 170.289062 148.386719 L 168.40625 149.167969 C 168.355469 149.1875 168.292969 149.183594 168.246094 149.148438 C 168.199219 149.113281 168.171875 149.058594 168.175781 149 L 168.339844 146.972656 L 167.015625 145.429688 C 166.976562 145.386719 166.964844 145.324219 166.984375 145.269531 C 167 145.214844 167.046875 145.171875 167.101562 145.160156 L 169.082031 144.6875 Z M 170.144531 142.953125 " fill-opacity="1" fill-rule="evenodd"/><path fill="#122936" d="M 181.652344 123.042969 L 180.25 125.328125 C 180.25 125.328125 177.636719 125.953125 177.636719 125.953125 C 177.4375 126 177.277344 126.148438 177.210938 126.34375 C 177.148438 126.539062 177.191406 126.753906 177.324219 126.910156 C 177.324219 126.910156 179.070312 128.949219 179.070312 128.949219 C 179.070312 128.949219 178.859375 131.621094 178.859375 131.621094 C 178.84375 131.824219 178.933594 132.023438 179.101562 132.144531 C 179.269531 132.265625 179.484375 132.292969 179.675781 132.214844 C 179.675781 132.214844 182.15625 131.1875 182.15625 131.1875 C 182.15625 131.1875 184.636719 132.214844 184.636719 132.214844 C 184.824219 132.292969 185.042969 132.265625 185.210938 132.144531 C 185.378906 132.023438 185.46875 131.824219 185.453125 131.621094 C 185.453125 131.621094 185.242188 128.949219 185.242188 128.949219 C 185.242188 128.949219 186.984375 126.910156 186.984375 126.910156 C 187.121094 126.753906 187.164062 126.539062 187.097656 126.34375 C 187.035156 126.148438 186.875 126 186.671875 125.953125 C 186.671875 125.953125 184.0625 125.328125 184.0625 125.328125 C 184.0625 125.328125 182.660156 123.042969 182.660156 123.042969 C 182.554688 122.867188 182.363281 122.757812 182.15625 122.757812 C 181.949219 122.757812 181.757812 122.867188 181.652344 123.042969 Z M 182.15625 123.59375 L 183.527344 125.828125 C 183.578125 125.910156 183.65625 125.96875 183.75 125.992188 L 186.304688 126.601562 L 184.597656 128.59375 C 184.535156 128.667969 184.503906 128.761719 184.511719 128.855469 L 184.71875 131.472656 L 182.292969 130.464844 C 182.207031 130.429688 182.105469 130.429688 182.019531 130.464844 L 179.589844 131.472656 L 179.800781 128.855469 C 179.808594 128.761719 179.777344 128.667969 179.714844 128.59375 L 178.007812 126.601562 L 180.5625 125.992188 C 180.65625 125.96875 180.734375 125.910156 180.785156 125.828125 Z M 182.15625 123.59375 " fill-opacity="1" fill-rule="evenodd"/><g clip-path="url(#f456a72494)"><path fill="#122936" d="M 118.964844 105.410156 L 118.074219 106.859375 C 118.074219 106.859375 116.421875 107.253906 116.421875 107.253906 C 116.246094 107.296875 116.109375 107.425781 116.054688 107.59375 C 116 107.761719 116.035156 107.949219 116.152344 108.082031 C 116.152344 108.082031 117.257812 109.375 117.257812 109.375 C 117.257812 109.375 117.121094 111.066406 117.121094 111.066406 C 117.109375 111.242188 117.1875 111.414062 117.332031 111.519531 C 117.476562 111.625 117.664062 111.648438 117.828125 111.578125 C 117.828125 111.578125 119.398438 110.925781 119.398438 110.925781 C 119.398438 110.925781 120.972656 111.578125 120.972656 111.578125 C 121.136719 111.648438 121.324219 111.625 121.46875 111.519531 C 121.613281 111.414062 121.691406 111.242188 121.675781 111.066406 C 121.675781 111.066406 121.542969 109.375 121.542969 109.375 C 121.542969 109.375 122.648438 108.082031 122.648438 108.082031 C 122.765625 107.949219 122.800781 107.761719 122.746094 107.59375 C 122.691406 107.425781 122.550781 107.296875 122.378906 107.253906 C 122.378906 107.253906 120.722656 106.859375 120.722656 106.859375 C 120.722656 106.859375 119.835938 105.410156 119.835938 105.410156 C 119.742188 105.257812 119.578125 105.164062 119.398438 105.164062 C 119.222656 105.164062 119.054688 105.257812 118.964844 105.410156 Z M 119.398438 106.074219 L 120.1875 107.359375 C 120.238281 107.441406 120.320312 107.5 120.410156 107.523438 L 121.882812 107.875 L 120.898438 109.019531 C 120.835938 109.09375 120.804688 109.1875 120.8125 109.28125 L 120.933594 110.785156 L 119.539062 110.207031 C 119.449219 110.171875 119.351562 110.171875 119.261719 110.207031 L 117.867188 110.785156 L 117.984375 109.28125 C 117.992188 109.1875 117.960938 109.09375 117.898438 109.019531 L 116.917969 107.875 L 118.386719 107.523438 C 118.480469 107.5 118.5625 107.441406 118.609375 107.359375 Z M 119.398438 106.074219 " fill-opacity="1" fill-rule="evenodd"/></g><path fill="#456188" d="M 124.757812 163.226562 C 120.945312 162.253906 112.046875 164.875 111.0625 161.734375 C 108.511719 153.59375 100.960938 151.136719 97.015625 155.417969 C 95.460938 157.105469 94.691406 160.308594 92.332031 160.816406 C 88.703125 161.601562 85.113281 157.894531 81.34375 159.832031 C 78.757812 161.160156 80.472656 164.847656 78.160156 166.261719 C 75.25 168.042969 66.652344 165.003906 66.207031 171.082031 C 65.855469 175.945312 74.535156 177.046875 78.480469 176.503906 C 80.160156 176.277344 82.210938 174.976562 83.863281 175.226562 C 86.773438 175.667969 87.925781 179.1875 91.363281 179.1875 C 95.308594 179.1875 97.292969 174.726562 101.5625 175.664062 C 106.730469 176.796875 108.53125 181.445312 115.09375 179.632812 C 117.644531 178.925781 118.617188 176.105469 120.753906 174.78125 C 123.261719 173.222656 128.320312 172.527344 128.757812 169.351562 C 129.15625 166.492188 127.734375 163.988281 124.757812 163.226562 Z M 124.757812 163.226562 " fill-opacity="1" fill-rule="evenodd"/><path fill="#9d3433" d="M 171.6875 142.582031 L 182.496094 136.644531 L 165.949219 130.378906 L 155.140625 136.351562 Z M 171.6875 142.582031 " fill-opacity="1" fill-rule="nonzero"/><path fill="#9d3433" d="M 189.078125 117.515625 L 178.15625 123.5625 L 194.8125 129.792969 L 205.625 123.746094 Z M 189.078125 117.515625 " fill-opacity="1" fill-rule="nonzero"/><g clip-path="url(#0c2de67381)"><path fill="#9d3433" d="M 217.757812 116.820312 L 211.175781 105.128906 L 201.285156 110.664062 Z M 217.757812 116.820312 " fill-opacity="1" fill-rule="nonzero"/></g><g clip-path="url(#9fde2c9994)"><path fill="#9d3433" d="M 142.824219 143.167969 L 131.5 149.433594 L 138.152344 161.308594 L 159.371094 149.433594 Z M 142.824219 143.167969 " fill-opacity="1" fill-rule="nonzero"/></g><path fill="#9d3433" d="M 224.339844 131.1875 L 220.109375 142.546875 L 206.875 147.273438 L 211.433594 135.289062 L 199.703125 139.429688 L 195.144531 151.414062 L 181.910156 156.140625 L 186.46875 144.160156 L 174.738281 148.300781 L 170.179688 160.28125 L 156.941406 165.007812 L 161.390625 153.027344 L 138.152344 161.273438 L 154.515625 207.003906 L 240.480469 176.515625 Z M 154.515625 182.34375 L 153.597656 179.925781 L 224.082031 154.859375 L 225 157.277344 Z M 159.074219 193.703125 L 229.558594 168.636719 L 230.480469 171.054688 L 159.996094 196.121094 Z M 159.074219 193.703125 " fill-opacity="1" fill-rule="nonzero"/><g clip-path="url(#80dc2148ed)"><path fill="#9d3433" d="M 155.84375 210.433594 L 196.363281 196.027344 L 198.402344 201.722656 L 157.882812 216.128906 Z M 155.84375 210.433594 " fill-opacity="1" fill-rule="nonzero"/></g><g clip-path="url(#64aa48eb2a)"><path fill="#9d3433" d="M 198.796875 195.148438 L 241.808594 179.855469 L 243.847656 185.550781 L 200.835938 200.84375 Z M 198.796875 195.148438 " fill-opacity="1" fill-rule="nonzero"/></g><g fill="#22404b" fill-opacity="1"><g transform="translate(93.029304, 256.14719)"><g><path d="M 1.515625 0 L 1.515625 -34.359375 L 12 -34.359375 L 14.875 -13.40625 L 17.765625 -34.359375 L 28.3125 -34.359375 L 28.3125 0 L 22.046875 0 L 22.046875 -24.765625 L 18.078125 0 L 11.921875 0 L 7.71875 -24.765625 L 7.71875 0 Z M 1.515625 0 "/></g></g></g><g fill="#22404b" fill-opacity="1"><g transform="translate(122.866339, 256.14719)"><g><path d="M 9.921875 0.3125 C 4.078125 0.3125 1.15625 -2.710938 1.15625 -8.765625 L 1.15625 -20.515625 C 1.15625 -23.296875 1.9375 -25.503906 3.5 -27.140625 C 5.0625 -28.773438 7.203125 -29.59375 9.921875 -29.59375 C 12.640625 -29.59375 14.78125 -28.773438 16.34375 -27.140625 C 17.90625 -25.503906 18.6875 -23.296875 18.6875 -20.515625 L 18.6875 -8.765625 C 18.6875 -2.710938 15.765625 0.3125 9.921875 0.3125 Z M 9.921875 -5.078125 C 10.484375 -5.078125 10.894531 -5.273438 11.15625 -5.671875 C 11.425781 -6.078125 11.5625 -6.625 11.5625 -7.3125 L 11.5625 -21.640625 C 11.5625 -23.347656 11.015625 -24.203125 9.921875 -24.203125 C 8.828125 -24.203125 8.28125 -23.347656 8.28125 -21.640625 L 8.28125 -7.3125 C 8.28125 -6.625 8.410156 -6.078125 8.671875 -5.671875 C 8.941406 -5.273438 9.359375 -5.078125 9.921875 -5.078125 Z M 9.921875 -5.078125 "/></g></g></g><g fill="#22404b" fill-opacity="1"><g transform="translate(142.744358, 256.14719)"><g><path d="M 5.125 0 L 0.4375 -29.28125 L 7.4375 -29.28125 L 8.875 -14.484375 L 9.125 -9.71875 L 9.40625 -14.515625 L 11 -29.28125 L 18 -29.28125 L 13.234375 0 Z M 5.125 0 "/></g></g></g><g fill="#22404b" fill-opacity="1"><g transform="translate(161.182529, 256.14719)"><g><path d="M 1.359375 -31.234375 L 1.359375 -36.125 L 8.359375 -36.125 L 8.359375 -31.234375 Z M 1.359375 0 L 1.359375 -29.28125 L 8.359375 -29.28125 L 8.359375 0 Z M 1.359375 0 "/></g></g></g><g fill="#22404b" fill-opacity="1"><g transform="translate(170.901561, 256.14719)"><g><path d="M 9.59375 0.3125 C 6.582031 0.3125 4.421875 -0.507812 3.109375 -2.15625 C 1.804688 -3.8125 1.15625 -6.28125 1.15625 -9.5625 L 1.15625 -21.3125 C 1.15625 -24.007812 1.925781 -26.0625 3.46875 -27.46875 C 5.019531 -28.882812 7.179688 -29.59375 9.953125 -29.59375 C 15.585938 -29.59375 18.40625 -26.832031 18.40625 -21.3125 L 18.40625 -19.203125 C 18.40625 -17.066406 18.375 -15.332031 18.3125 -14 L 8.15625 -14 L 8.15625 -8.3125 C 8.15625 -7.300781 8.257812 -6.507812 8.46875 -5.9375 C 8.6875 -5.363281 9.144531 -5.078125 9.84375 -5.078125 C 10.375 -5.078125 10.75 -5.238281 10.96875 -5.5625 C 11.195312 -5.882812 11.332031 -6.25 11.375 -6.65625 C 11.414062 -7.070312 11.4375 -7.679688 11.4375 -8.484375 L 11.4375 -11.3125 L 18.40625 -11.3125 L 18.40625 -9.640625 C 18.40625 -6.222656 17.742188 -3.707031 16.421875 -2.09375 C 15.097656 -0.488281 12.820312 0.3125 9.59375 0.3125 Z M 11.4375 -17.484375 L 11.4375 -21.234375 C 11.4375 -23.347656 10.914062 -24.40625 9.875 -24.40625 C 8.707031 -24.40625 8.125 -23.347656 8.125 -21.234375 L 8.125 -17.484375 Z M 11.4375 -17.484375 "/></g></g></g><g fill="#22404b" fill-opacity="1"><g transform="translate(190.419618, 256.14719)"><g/></g></g><g fill="#9d3433" fill-opacity="1"><g transform="translate(199.775391, 256.14719)"><g><path d="M 1.515625 0 L 1.515625 -34.359375 L 8.59375 -34.359375 L 11.765625 -17.921875 L 11.765625 -34.359375 L 18.40625 -34.359375 L 18.40625 0 L 11.6875 0 L 8.234375 -17.203125 L 8.234375 0 Z M 1.515625 0 "/></g></g></g><g fill="#9d3433" fill-opacity="1"><g transform="translate(219.693408, 256.14719)"><g><path d="M 1.359375 -31.234375 L 1.359375 -36.125 L 8.359375 -36.125 L 8.359375 -31.234375 Z M 1.359375 0 L 1.359375 -29.28125 L 8.359375 -29.28125 L 8.359375 0 Z M 1.359375 0 "/></g></g></g><g fill="#9d3433" fill-opacity="1"><g transform="translate(229.41244, 256.14719)"><g><path d="M 9.28125 4.28125 C 7.195312 4.28125 5.5625 4.113281 4.375 3.78125 C 3.1875 3.445312 2.019531 2.8125 0.875 1.875 L 3.28125 -2.15625 C 4.988281 -1.144531 6.679688 -0.640625 8.359375 -0.640625 C 9.453125 -0.640625 10.28125 -0.984375 10.84375 -1.671875 C 11.40625 -2.367188 11.6875 -3.316406 11.6875 -4.515625 L 11.6875 -6.125 C 11.125 -4.125 9.640625 -3.125 7.234375 -3.125 C 5.234375 -3.125 3.757812 -3.800781 2.8125 -5.15625 C 1.875 -6.519531 1.40625 -8.332031 1.40625 -10.59375 L 1.40625 -21.59375 C 1.40625 -24.1875 1.835938 -26.164062 2.703125 -27.53125 C 3.566406 -28.90625 5.078125 -29.59375 7.234375 -29.59375 C 8.492188 -29.59375 9.488281 -29.28125 10.21875 -28.65625 C 10.945312 -28.03125 11.4375 -27.144531 11.6875 -26 L 11.6875 -29.28125 L 18.84375 -29.28125 L 18.84375 -4.953125 C 18.84375 -1.679688 18.082031 0.671875 16.5625 2.109375 C 15.039062 3.554688 12.613281 4.28125 9.28125 4.28125 Z M 10.046875 -8.40625 C 11.140625 -8.40625 11.6875 -9.390625 11.6875 -11.359375 L 11.6875 -21.796875 C 11.6875 -22.390625 11.523438 -22.953125 11.203125 -23.484375 C 10.878906 -24.015625 10.476562 -24.28125 10 -24.28125 C 9.382812 -24.28125 8.96875 -24.054688 8.75 -23.609375 C 8.539062 -23.171875 8.4375 -22.566406 8.4375 -21.796875 L 8.4375 -11.359375 C 8.4375 -10.484375 8.539062 -9.769531 8.75 -9.21875 C 8.96875 -8.675781 9.398438 -8.40625 10.046875 -8.40625 Z M 10.046875 -8.40625 "/></g></g></g><g fill="#9d3433" fill-opacity="1"><g transform="translate(249.57044, 256.14719)"><g><path d="M 1.40625 -34.5625 L 8.59375 -34.5625 L 8.59375 -26.40625 C 9.34375 -28.53125 10.769531 -29.59375 12.875 -29.59375 C 14.851562 -29.59375 16.347656 -28.96875 17.359375 -27.71875 C 18.367188 -26.46875 18.875 -24.75 18.875 -22.5625 L 18.875 0 L 11.875 0 L 11.875 -22.125 C 11.875 -22.757812 11.726562 -23.273438 11.4375 -23.671875 C 11.144531 -24.078125 10.71875 -24.28125 10.15625 -24.28125 C 9.675781 -24.28125 9.296875 -24.070312 9.015625 -23.65625 C 8.734375 -23.25 8.59375 -22.75 8.59375 -22.15625 L 8.59375 0 L 1.40625 0 Z M 1.40625 -34.5625 "/></g></g></g><g fill="#9d3433" fill-opacity="1"><g transform="translate(269.768437, 256.14719)"><g><path d="M 7.4375 0.3125 C 5.601562 0.3125 4.335938 -0.0703125 3.640625 -0.84375 C 2.941406 -1.613281 2.59375 -2.851562 2.59375 -4.5625 L 2.59375 -22.84375 L 0.640625 -22.84375 L 0.640625 -28.15625 L 2.59375 -28.15625 L 2.59375 -34.359375 L 9.40625 -34.359375 L 9.40625 -28.15625 L 11.40625 -28.15625 L 11.40625 -22.84375 L 9.40625 -22.84375 L 9.40625 -6.40625 C 9.40625 -5.894531 9.441406 -5.519531 9.515625 -5.28125 C 9.597656 -5.039062 9.8125 -4.921875 10.15625 -4.921875 C 10.425781 -4.921875 10.679688 -4.929688 10.921875 -4.953125 C 11.160156 -4.984375 11.320312 -5 11.40625 -5 L 11.40625 -0.203125 C 11 -0.0976562 10.414062 0.0078125 9.65625 0.125 C 8.894531 0.25 8.15625 0.3125 7.4375 0.3125 Z M 7.4375 0.3125 "/></g></g></g><g fill="#9d3433" fill-opacity="1"><g transform="translate(122.162115, 295.897188)"><g/></g></g><g fill="#22404b" fill-opacity="1"><g transform="translate(131.513677, 295.897188)"><g><path d="M 1.515625 -34.359375 L 10.59375 -34.359375 C 13.34375 -34.359375 15.300781 -33.472656 16.46875 -31.703125 C 17.644531 -29.929688 18.234375 -27.335938 18.234375 -23.921875 C 18.234375 -20.503906 17.710938 -17.925781 16.671875 -16.1875 C 15.640625 -14.457031 13.773438 -13.59375 11.078125 -13.59375 L 8.28125 -13.59375 L 8.28125 0 L 1.515625 0 Z M 8.6875 -19.796875 C 9.507812 -19.796875 10.113281 -19.945312 10.5 -20.25 C 10.882812 -20.5625 11.132812 -21.003906 11.25 -21.578125 C 11.375 -22.148438 11.4375 -22.972656 11.4375 -24.046875 C 11.4375 -25.484375 11.273438 -26.519531 10.953125 -27.15625 C 10.640625 -27.800781 10.003906 -28.125 9.046875 -28.125 L 8.28125 -28.125 L 8.28125 -19.796875 Z M 8.6875 -19.796875 "/></g></g></g><g fill="#22404b" fill-opacity="1"><g transform="translate(150.391803, 295.897188)"><g><path d="M 1.40625 0 L 1.40625 -34.5625 L 8.515625 -34.5625 L 8.515625 0 Z M 1.40625 0 "/></g></g></g><g fill="#22404b" fill-opacity="1"><g transform="translate(160.310821, 295.897188)"><g><path d="M 6.71875 0.3125 C 4.445312 0.3125 2.890625 -0.4375 2.046875 -1.9375 C 1.210938 -3.445312 0.796875 -5.601562 0.796875 -8.40625 C 0.796875 -10.695312 1.09375 -12.453125 1.6875 -13.671875 C 2.289062 -14.898438 3.125 -15.800781 4.1875 -16.375 C 5.257812 -16.945312 6.890625 -17.582031 9.078125 -18.28125 L 11 -18.921875 L 11 -21.921875 C 11 -22.691406 10.84375 -23.28125 10.53125 -23.6875 C 10.226562 -24.101562 9.863281 -24.3125 9.4375 -24.3125 C 9.0625 -24.3125 8.734375 -24.140625 8.453125 -23.796875 C 8.179688 -23.453125 8.046875 -22.988281 8.046875 -22.40625 L 8.046875 -20.640625 L 1.234375 -20.640625 L 1.234375 -21.59375 C 1.234375 -24.476562 1.90625 -26.53125 3.25 -27.75 C 4.601562 -28.976562 6.800781 -29.59375 9.84375 -29.59375 C 12.269531 -29.59375 14.242188 -28.957031 15.765625 -27.6875 C 17.285156 -26.425781 18.046875 -24.632812 18.046875 -22.3125 L 18.046875 0 L 11.078125 0 L 11.078125 -3.484375 C 10.734375 -2.285156 10.179688 -1.351562 9.421875 -0.6875 C 8.660156 -0.0195312 7.757812 0.3125 6.71875 0.3125 Z M 9.484375 -5.125 C 10.015625 -5.125 10.390625 -5.34375 10.609375 -5.78125 C 10.835938 -6.21875 10.953125 -6.757812 10.953125 -7.40625 L 10.953125 -15.5625 C 9.921875 -15.15625 9.15625 -14.644531 8.65625 -14.03125 C 8.164062 -13.425781 7.921875 -12.578125 7.921875 -11.484375 L 7.921875 -7.71875 C 7.921875 -5.988281 8.441406 -5.125 9.484375 -5.125 Z M 9.484375 -5.125 "/></g></g></g><g fill="#22404b" fill-opacity="1"><g transform="translate(179.628904, 295.897188)"><g><path d="M 1.40625 -29.28125 L 8.40625 -29.28125 L 8.40625 -25.5625 C 8.695312 -26.757812 9.203125 -27.726562 9.921875 -28.46875 C 10.640625 -29.21875 11.597656 -29.59375 12.796875 -29.59375 C 14.773438 -29.59375 16.234375 -28.984375 17.171875 -27.765625 C 18.117188 -26.554688 18.59375 -24.832031 18.59375 -22.59375 L 18.59375 0 L 11.71875 0 L 11.71875 -21.875 C 11.71875 -22.519531 11.585938 -23.066406 11.328125 -23.515625 C 11.078125 -23.972656 10.6875 -24.203125 10.15625 -24.203125 C 9.4375 -24.203125 8.960938 -23.875 8.734375 -23.21875 C 8.515625 -22.5625 8.40625 -21.6875 8.40625 -20.59375 L 8.40625 0 L 1.40625 0 Z M 1.40625 -29.28125 "/></g></g></g><g fill="#22404b" fill-opacity="1"><g transform="translate(199.586918, 295.897188)"><g><path d="M 1.40625 -29.28125 L 8.40625 -29.28125 L 8.40625 -25.5625 C 8.695312 -26.757812 9.203125 -27.726562 9.921875 -28.46875 C 10.640625 -29.21875 11.597656 -29.59375 12.796875 -29.59375 C 14.773438 -29.59375 16.234375 -28.984375 17.171875 -27.765625 C 18.117188 -26.554688 18.59375 -24.832031 18.59375 -22.59375 L 18.59375 0 L 11.71875 0 L 11.71875 -21.875 C 11.71875 -22.519531 11.585938 -23.066406 11.328125 -23.515625 C 11.078125 -23.972656 10.6875 -24.203125 10.15625 -24.203125 C 9.4375 -24.203125 8.960938 -23.875 8.734375 -23.21875 C 8.515625 -22.5625 8.40625 -21.6875 8.40625 -20.59375 L 8.40625 0 L 1.40625 0 Z M 1.40625 -29.28125 "/></g></g></g><g fill="#22404b" fill-opacity="1"><g transform="translate(219.544932, 295.897188)"><g><path d="M 9.59375 0.3125 C 6.582031 0.3125 4.421875 -0.507812 3.109375 -2.15625 C 1.804688 -3.8125 1.15625 -6.28125 1.15625 -9.5625 L 1.15625 -21.3125 C 1.15625 -24.007812 1.925781 -26.0625 3.46875 -27.46875 C 5.019531 -28.882812 7.179688 -29.59375 9.953125 -29.59375 C 15.585938 -29.59375 18.40625 -26.832031 18.40625 -21.3125 L 18.40625 -19.203125 C 18.40625 -17.066406 18.375 -15.332031 18.3125 -14 L 8.15625 -14 L 8.15625 -8.3125 C 8.15625 -7.300781 8.257812 -6.507812 8.46875 -5.9375 C 8.6875 -5.363281 9.144531 -5.078125 9.84375 -5.078125 C 10.375 -5.078125 10.75 -5.238281 10.96875 -5.5625 C 11.195312 -5.882812 11.332031 -6.25 11.375 -6.65625 C 11.414062 -7.070312 11.4375 -7.679688 11.4375 -8.484375 L 11.4375 -11.3125 L 18.40625 -11.3125 L 18.40625 -9.640625 C 18.40625 -6.222656 17.742188 -3.707031 16.421875 -2.09375 C 15.097656 -0.488281 12.820312 0.3125 9.59375 0.3125 Z M 11.4375 -17.484375 L 11.4375 -21.234375 C 11.4375 -23.347656 10.914062 -24.40625 9.875 -24.40625 C 8.707031 -24.40625 8.125 -23.347656 8.125 -21.234375 L 8.125 -17.484375 Z M 11.4375 -17.484375 "/></g></g></g><g fill="#22404b" fill-opacity="1"><g transform="translate(239.062989, 295.897188)"><g><path d="M 1.40625 -29.28125 L 8.40625 -29.28125 L 8.40625 -26.046875 C 8.75 -27.191406 9.351562 -28.078125 10.21875 -28.703125 C 11.082031 -29.328125 12.15625 -29.640625 13.4375 -29.640625 L 13.4375 -23.796875 C 12.445312 -23.796875 11.359375 -23.65625 10.171875 -23.375 C 8.992188 -23.09375 8.40625 -22.769531 8.40625 -22.40625 L 8.40625 0 L 1.40625 0 Z M 1.40625 -29.28125 "/></g></g></g></svg>