<svg xmlns="http://www.w3.org/2000/svg" width="500" viewBox="0 0 375 375" height="500" version="1.0"><defs><clipPath id="dc0fca6ebb"><path d="M227.367 90H259v32.11h-31.633Zm0 0"/></clipPath><clipPath id="f37eab4dfb"><path d="M233 88.36h26.617V116H233Zm0 0"/></clipPath><clipPath id="94fd8134f7"><path d="M152 164h63.852v28H152Zm0 0"/></clipPath><clipPath id="57d1c6f0e1"><path d="M104 115h86v86.129h-86Zm0 0"/></clipPath><clipPath id="f456a72494"><path d="M116 105.129h7V112h-7Zm0 0"/></clipPath><clipPath id="0c2de67381"><path d="M201 105.129h17V117h-17Zm0 0"/></clipPath><clipPath id="9fde2c9994"><path d="M131.43 143H160v19h-28.57Zm0 0"/></clipPath><clipPath id="80dc2148ed"><path d="M155 196h44v20.129h-44Zm0 0"/></clipPath><clipPath id="64aa48eb2a"><path d="M198 179h45.93v22H198Zm0 0"/></clipPath></defs><g clip-path="url('#dc0fca6ebb')"><path fill="#456188" d="M243.117 90.246c-8.683 0-15.75 7.145-15.75 15.926 0 8.777 7.067 15.922 15.75 15.922 8.684 0 15.75-7.145 15.75-15.922 0-3.797-1.27-7.192-3.426-9.973l-1.484 1.778c1.883 2.343 2.617 4.941 2.617 8.195 0 7.52-6.015 13.601-13.457 13.601-7.441 0-13.457-6.082-13.457-13.601 0-7.524 6.016-13.61 13.457-13.61 2.356 0 4.121.344 6.047 1.418l1.406-1.87c-2.254-1.258-4.703-1.864-7.453-1.864Zm0 0" fill-rule="evenodd"/></g><g clip-path="url('#f37eab4dfb')"><path fill="#456188" d="M237.285 104.074c.637 0 1.117.528 1.442 1.582.652 1.977 1.117 2.965 1.394 2.965.211 0 .43-.164.66-.496 4.574-7.41 8.809-13.402 12.703-17.98 1.008-1.184 2.614-1.778 4.813-1.778.52 0 .871.051 1.05.149.18.097.27.222.27.37 0 .231-.27.684-.808 1.356a240.243 240.243 0 0 0-17.493 24.207c-.375.594-1.136.89-2.296.89-1.172 0-1.864-.05-2.075-.148-.554-.25-1.207-1.507-1.953-3.78-.847-2.52-1.273-4.099-1.273-4.743 0-.691.57-1.356 1.71-2 .7-.395 1.321-.594 1.856-.594"/></g><g clip-path="url('#94fd8134f7')"><path fill="#456188" d="M211.46 174.414c-3.808-.973-12.71 1.649-13.69-1.488-2.555-8.145-10.102-10.602-14.051-6.317-1.555 1.684-2.324 4.887-4.684 5.399-3.629.781-7.219-2.926-10.988-.988-2.582 1.328-.871 5.015-3.184 6.43-2.91 1.78-11.508-1.259-11.949 4.82-.355 4.867 8.324 5.964 12.274 5.425 1.675-.23 3.726-1.527 5.378-1.28 2.91.44 4.067 3.96 7.504 3.96 3.942 0 5.926-4.457 10.2-3.523 5.167 1.132 6.968 5.78 13.527 3.968 2.55-.703 3.527-3.527 5.66-4.851 2.512-1.559 7.566-2.254 8.008-5.43.394-2.86-1.024-5.363-4.004-6.125Zm0 0" fill-rule="evenodd"/></g><g clip-path="url('#57d1c6f0e1')"><path fill="#22404b" d="M139.504 115.188c-8.512 6.761-13.969 17.195-13.969 28.886 0 20.367 16.563 36.903 36.965 36.903 10.516 0 20.012-4.395 26.746-11.438-5.14 18.195-21.906 31.55-41.77 31.55-23.949 0-43.39-19.41-43.39-43.316 0-21.187 15.273-38.843 35.418-42.585Zm0 0" fill-rule="evenodd"/></g><path fill="#122936" d="M154.258 117.426a.303.303 0 0 1 .262-.149c.109 0 .21.055.265.149l1.969 3.21 3.664.876a.301.301 0 0 1 .223.203.303.303 0 0 1-.059.297l-2.45 2.863.298 3.75a.31.31 0 0 1-.426.313l-3.484-1.446-3.48 1.445a.308.308 0 0 1-.302-.039.302.302 0 0 1-.129-.273l.301-3.75-2.453-2.863a.308.308 0 0 1 .164-.5l3.668-.875ZM170.145 142.953a.17.17 0 0 1 .144-.082c.059 0 .11.031.14.082l1.063 1.734 1.98.473a.17.17 0 0 1 .122.11.18.18 0 0 1-.031.16l-1.325 1.543.16 2.027a.168.168 0 0 1-.066.148.176.176 0 0 1-.164.02l-1.879-.781-1.883.781a.169.169 0 0 1-.23-.168l.164-2.027-1.324-1.543a.16.16 0 0 1-.032-.16.158.158 0 0 1 .118-.11l1.98-.472ZM181.652 123.043l-1.402 2.285-2.613.625a.596.596 0 0 0-.426.39.596.596 0 0 0 .113.567l1.746 2.04-.21 2.671a.594.594 0 0 0 .816.594l2.48-1.028 2.48 1.028a.595.595 0 0 0 .817-.594l-.21-2.672 1.741-2.039a.576.576 0 0 0 .114-.566.583.583 0 0 0-.426-.39l-2.61-.626-1.402-2.285a.589.589 0 0 0-1.008 0Zm.504.55 1.371 2.235c.051.082.13.14.223.164l2.555.61-1.707 1.992a.36.36 0 0 0-.086.261l.207 2.618-2.426-1.008a.368.368 0 0 0-.273 0l-2.43 1.008.21-2.618a.36.36 0 0 0-.085-.261l-1.707-1.992 2.554-.61a.365.365 0 0 0 .223-.164Zm0 0" fill-rule="evenodd"/><g clip-path="url('#f456a72494')"><path fill="#122936" d="m118.965 105.41-.89 1.45-1.653.394a.512.512 0 0 0-.27.828l1.106 1.293-.137 1.691a.518.518 0 0 0 .211.454.503.503 0 0 0 .496.058l1.57-.652 1.575.652a.506.506 0 0 0 .703-.512l-.133-1.691 1.105-1.293a.504.504 0 0 0 .098-.488.52.52 0 0 0-.367-.34l-1.656-.395-.887-1.449a.506.506 0 0 0-.871 0Zm.433.664.79 1.285c.05.082.132.141.222.164l1.473.352-.985 1.145a.36.36 0 0 0-.085.261l.12 1.504-1.394-.578a.378.378 0 0 0-.277 0l-1.395.578.117-1.504a.36.36 0 0 0-.086-.261l-.98-1.145 1.469-.352a.354.354 0 0 0 .222-.164Zm0 0" fill-rule="evenodd"/></g><path fill="#456188" d="M124.758 163.227c-3.813-.973-12.711 1.648-13.695-1.493-2.551-8.14-10.102-10.597-14.047-6.316-1.555 1.687-2.325 4.89-4.684 5.398-3.629.786-7.219-2.921-10.988-.984-2.586 1.328-.871 5.016-3.184 6.43-2.91 1.781-11.508-1.258-11.953 4.82-.352 4.863 8.328 5.965 12.273 5.422 1.68-.227 3.73-1.527 5.383-1.277 2.91.441 4.063 3.96 7.5 3.96 3.946 0 5.93-4.46 10.2-3.523 5.167 1.133 6.968 5.781 13.53 3.969 2.552-.707 3.524-3.528 5.66-4.852 2.509-1.558 7.567-2.254 8.005-5.43.398-2.859-1.024-5.363-4-6.124Zm0 0" fill-rule="evenodd"/><path fill="#9d3433" d="m171.688 142.582 10.808-5.937-16.547-6.266-10.808 5.973ZM189.078 117.516l-10.922 6.046 16.656 6.231 10.813-6.047Zm0 0"/><g clip-path="url('#0c2de67381')"><path fill="#9d3433" d="m217.758 116.82-6.582-11.691-9.89 5.535Zm0 0"/></g><g clip-path="url('#9fde2c9994')"><path fill="#9d3433" d="m142.824 143.168-11.324 6.266 6.652 11.875 21.22-11.875Zm0 0"/></g><path fill="#9d3433" d="m224.34 131.188-4.23 11.359-13.235 4.726 4.559-11.984-11.73 4.14-4.56 11.985-13.234 4.727 4.559-11.98-11.73 4.14-4.56 11.98-13.238 4.727 4.45-11.98-23.239 8.245 16.364 45.73 85.964-30.487Zm-69.824 51.156-.918-2.418 70.484-25.067.918 2.418Zm4.558 11.36 70.485-25.067.921 2.418-70.484 25.066Zm0 0"/><g clip-path="url('#80dc2148ed')"><path fill="#9d3433" d="m155.844 210.434 40.52-14.407 2.038 5.696-40.52 14.406Zm0 0"/></g><g clip-path="url('#64aa48eb2a')"><path fill="#9d3433" d="m198.797 195.148 43.012-15.293 2.039 5.696-43.012 15.293Zm0 0"/></g><path d="M94.545 256.147v-34.36h10.484l2.875 20.954 2.89-20.953h10.548v34.36h-6.266v-24.766l-3.969 24.765h-6.156l-4.203-24.765v24.765ZM132.788 256.46c-5.844 0-8.765-3.024-8.765-9.078v-11.75c0-2.782.78-4.989 2.343-6.625 1.563-1.633 3.703-2.454 6.422-2.454s4.86.82 6.422 2.454c1.563 1.636 2.344 3.843 2.344 6.625v11.75c0 6.054-2.922 9.078-8.766 9.078Zm0-5.39c.563 0 .973-.196 1.235-.595.27-.406.406-.953.406-1.64v-14.328c0-1.707-.547-2.563-1.64-2.563-1.095 0-1.641.856-1.641 2.563v14.328c0 .687.128 1.234.39 1.64.27.399.688.594 1.25.594ZM147.87 256.147l-4.688-29.281h7l1.437 14.797.25 4.765.282-4.796 1.593-14.766h7l-4.765 29.281ZM162.542 224.913v-4.89h7v4.89Zm0 31.234v-29.281h7v29.281ZM180.495 256.46c-3.011 0-5.172-.82-6.484-2.47-1.305-1.655-1.953-4.124-1.953-7.405v-11.75c0-2.696.77-4.75 2.312-6.157 1.551-1.414 3.711-2.125 6.485-2.125 5.632 0 8.453 2.762 8.453 8.282v2.11c0 2.136-.031 3.87-.094 5.202h-10.156v5.688c0 1.011.101 1.804.312 2.375.22.574.676.86 1.375.86.532 0 .907-.161 1.125-.485.227-.32.364-.688.407-1.094.039-.414.062-1.023.062-1.828v-2.828h6.969v1.672c0 3.418-.664 5.933-1.985 7.546-1.324 1.606-3.601 2.407-6.828 2.407Zm1.844-17.797v-3.75c0-2.113-.523-3.172-1.562-3.172-1.168 0-1.75 1.059-1.75 3.172v3.75Zm0 0" fill="#22404b"/><path d="M201.291 256.147v-34.36h7.078l3.172 16.438v-16.437h6.64v34.36h-6.718l-3.453-17.204v17.203ZM221.053 224.913v-4.89h7v4.89Zm0 31.234v-29.281h7v29.281ZM238.694 260.428c-2.086 0-3.72-.168-4.907-.5-1.187-.335-2.355-.968-3.5-1.906l2.407-4.031c1.707 1.012 3.398 1.516 5.078 1.516 1.094 0 1.922-.344 2.484-1.032.563-.695.844-1.644.844-2.843v-1.61c-.563 2-2.047 3-4.453 3-2 0-3.477-.676-4.422-2.031-.938-1.363-1.406-3.176-1.406-5.438v-11c0-2.593.43-4.57 1.297-5.937.863-1.375 2.375-2.063 4.53-2.063 1.259 0 2.255.313 2.985.938.727.625 1.219 1.512 1.469 2.656v-3.281h7.156v24.328c0 3.274-.762 5.625-2.281 7.063-1.523 1.445-3.95 2.171-7.281 2.171Zm.765-12.687c1.094 0 1.64-.984 1.64-2.953V234.35a3.22 3.22 0 0 0-.483-1.687c-.325-.531-.727-.797-1.204-.797-.617 0-1.03.227-1.25.672-.21.437-.312 1.043-.312 1.812v10.438c0 .875.102 1.59.312 2.14.22.543.649.813 1.297.813ZM250.977 221.585h7.187v8.156c.75-2.125 2.176-3.188 4.281-3.188 1.977 0 3.473.625 4.485 1.875 1.008 1.25 1.515 2.97 1.515 5.157v22.562h-7v-22.125c0-.633-.148-1.148-.437-1.547-.293-.406-.719-.61-1.281-.61-.48 0-.86.212-1.14.626-.282.406-.423.906-.423 1.5v22.156h-7.187ZM277.206 256.46c-1.836 0-3.102-.383-3.797-1.157-.7-.77-1.047-2.007-1.047-3.718v-18.282h-1.953v-5.312h1.953v-6.203h6.813v6.203h2v5.312h-2v16.438c0 .512.035.887.11 1.125.081.242.296.36.64.36.27 0 .523-.008.765-.032.239-.031.399-.047.485-.047v4.797c-.407.106-.993.211-1.75.328-.762.125-1.5.188-2.22.188Zm0 0" fill="#9d3433"/><path d="M133.03 261.538h9.077c2.75 0 4.707.887 5.875 2.656 1.176 1.774 1.766 4.367 1.766 7.781 0 3.418-.523 5.996-1.562 7.735-1.032 1.73-2.899 2.593-5.594 2.593h-2.797v13.594h-6.766ZM140.2 276.1c.82 0 1.426-.148 1.813-.453.382-.312.632-.754.75-1.328.125-.57.187-1.394.187-2.469 0-1.437-.164-2.472-.484-3.11-.313-.644-.95-.968-1.906-.968h-.766v8.328ZM151.798 295.897v-34.562h7.11v34.562ZM167.03 296.21c-2.274 0-3.829-.75-4.672-2.25-.836-1.508-1.25-3.664-1.25-6.47 0-2.288.297-4.046.89-5.265.602-1.226 1.438-2.129 2.5-2.703 1.07-.57 2.703-1.207 4.89-1.906l1.923-.64v-3c0-.77-.156-1.36-.469-1.766-.305-.414-.668-.625-1.094-.625-.375 0-.703.172-.984.515-.273.344-.406.809-.406 1.39v1.767h-6.813v-.954c0-2.882.672-4.937 2.016-6.156 1.351-1.226 3.55-1.844 6.594-1.844 2.425 0 4.398.637 5.921 1.907 1.52 1.261 2.282 3.054 2.282 5.375v22.312h-6.97v-3.484c-.343 1.199-.897 2.133-1.655 2.797-.762.668-1.664 1-2.703 1Zm2.765-5.438c.531 0 .906-.219 1.125-.656.227-.438.344-.977.344-1.625v-8.156c-1.031.406-1.797.918-2.297 1.53-.492.606-.734 1.454-.734 2.548v3.765c0 1.73.52 2.594 1.562 2.594ZM181.035 266.616h7v3.719c.29-1.196.797-2.164 1.516-2.907.719-.75 1.676-1.125 2.875-1.125 1.976 0 3.437.61 4.375 1.829.945 1.21 1.422 2.933 1.422 5.171v22.594h-6.875v-21.875c0-.644-.133-1.191-.391-1.64-.25-.457-.64-.688-1.172-.688-.719 0-1.195.328-1.422.984-.218.657-.328 1.532-.328 2.625v20.594h-7ZM200.993 266.616h7v3.719c.29-1.196.797-2.164 1.516-2.907.719-.75 1.676-1.125 2.875-1.125 1.976 0 3.437.61 4.375 1.829.945 1.21 1.422 2.933 1.422 5.171v22.594h-6.875v-21.875c0-.644-.133-1.191-.391-1.64-.25-.457-.64-.688-1.172-.688-.719 0-1.195.328-1.422.984-.218.657-.328 1.532-.328 2.625v20.594h-7ZM229.139 296.21c-3.012 0-5.172-.82-6.485-2.47-1.304-1.655-1.953-4.124-1.953-7.405v-11.75c0-2.696.77-4.75 2.313-6.157 1.55-1.414 3.71-2.125 6.484-2.125 5.633 0 8.453 2.762 8.453 8.282v2.11c0 2.136-.031 3.87-.094 5.202h-10.156v5.688c0 1.011.102 1.804.313 2.375.218.574.675.86 1.375.86.53 0 .906-.161 1.125-.485.226-.32.363-.688.406-1.094.039-.414.062-1.023.062-1.828v-2.828h6.97v1.672c0 3.418-.665 5.933-1.985 7.546-1.324 1.606-3.602 2.407-6.828 2.407Zm1.843-17.797v-3.75c0-2.113-.523-3.172-1.562-3.172-1.168 0-1.75 1.059-1.75 3.172v3.75ZM240.47 266.616h7v3.234c.343-1.144.945-2.03 1.812-2.656.863-.625 1.937-.937 3.218-.937v5.843c-.992 0-2.078.14-3.265.422-1.18.281-1.766.606-1.766.969v22.406h-7Zm0 0" fill="#22404b"/></svg>